<?xml version="1.0" standalone="no"?>
<!DOCTYPE svg PUBLIC "-//W3C//DTD SVG 20010904//EN"
 "http://www.w3.org/TR/2001/REC-SVG-20010904/DTD/svg10.dtd">
<svg version="1.0" xmlns="http://www.w3.org/2000/svg"
 width="2362.000000pt" height="2362.000000pt" viewBox="0 0 2362.000000 2362.000000"
 preserveAspectRatio="xMidYMid meet">
<metadata>
Created by potrace 1.11, written by Peter Selinger 2001-2013
</metadata>
<g transform="translate(0.000000,2362.000000) scale(0.100000,-0.100000)"
fill="#000000" stroke="none">
<path d="M11310 22800 c-1854 -83 -3556 -595 -5115 -1540 -598 -362 -1154
-782 -1708 -1289 -192 -175 -883 -878 -914 -929 -27 -44 -38 -106 -28 -168 14
-99 99 -142 382 -194 650 -120 1221 -348 1752 -697 265 -174 465 -334 729
-584 281 -264 427 -387 677 -569 547 -396 962 -580 1445 -640 127 -15 420 -12
561 6 305 40 653 158 954 326 323 179 633 410 1220 908 582 493 1106 798 1712
999 595 197 1286 276 1923 220 651 -57 1256 -261 1805 -608 333 -210 780 -594
856 -733 31 -58 34 -70 34 -148 0 -73 -5 -96 -33 -164 -56 -136 -120 -233
-217 -331 -101 -101 -181 -152 -300 -192 -71 -24 -95 -27 -215 -27 -98 0 -153
4 -200 17 -120 33 -275 119 -490 273 -246 175 -341 235 -525 330 -172 89 -291
139 -460 193 -482 154 -994 149 -1490 -14 -524 -172 -1038 -498 -1860 -1180
-137 -114 -299 -244 -360 -290 -579 -435 -1230 -727 -1898 -849 -282 -52 -390
-61 -747 -61 -265 0 -364 4 -475 18 -785 102 -1471 381 -2125 865 -148 110
-236 184 -505 422 -669 595 -901 773 -1196 919 -304 151 -612 238 -1004 283
-169 19 -540 17 -651 -4 -383 -72 -657 -263 -841 -583 -49 -86 -225 -475 -337
-748 -457 -1110 -686 -1995 -783 -3017 -23 -247 -24 -1075 -1 -1307 8 -84 17
-155 20 -158 3 -3 140 45 304 106 363 135 544 196 774 259 317 87 602 142 920
177 222 24 730 24 930 0 690 -85 1269 -300 1840 -680 276 -184 484 -358 825
-687 208 -201 299 -283 470 -420 964 -772 2012 -914 3015 -411 318 160 517
304 1285 931 387 316 598 467 867 622 583 334 1250 540 1943 598 155 13 576
13 730 0 965 -82 1819 -440 2514 -1055 327 -289 358 -453 136 -725 -70 -86
-318 -328 -375 -367 -115 -78 -248 -120 -339 -108 -126 17 -216 63 -388 197
-116 91 -471 331 -617 417 -311 183 -635 300 -976 353 -133 20 -538 17 -675
-5 -323 -54 -594 -145 -914 -307 -430 -218 -801 -483 -1461 -1044 -208 -177
-348 -285 -527 -404 -1291 -863 -2879 -965 -4263 -273 -466 233 -775 455
-1416 1017 -290 254 -446 382 -582 477 -441 310 -835 479 -1287 554 -155 25
-542 25 -705 0 -467 -74 -966 -292 -1430 -627 -250 -181 -346 -289 -408 -463
-22 -63 -26 -88 -26 -197 0 -143 5 -174 79 -435 482 -1696 1308 -3202 2481
-4525 161 -182 662 -684 854 -857 1152 -1035 2494 -1818 3950 -2303 580 -194
1186 -339 1810 -434 770 -118 1670 -147 2460 -80 2086 176 4077 974 5821 2330
604 471 1057 907 1445 1395 171 214 223 309 224 404 0 127 -100 182 -456 250
-838 162 -1531 477 -2173 989 -130 103 -227 188 -401 351 -554 520 -1269 939
-1850 1085 -653 164 -1231 56 -1871 -350 -216 -137 -419 -296 -904 -710 -507
-433 -672 -565 -885 -707 -1005 -670 -2176 -872 -3354 -577 -704 177 -1390
530 -2002 1030 -121 99 -209 193 -249 266 -26 46 -30 63 -30 133 0 71 4 88 36
155 20 41 70 120 111 175 313 415 621 501 1036 292 119 -61 180 -98 476 -296
138 -93 292 -192 341 -220 282 -163 591 -277 895 -332 147 -27 460 -37 621
-20 554 57 1135 318 1648 739 150 123 257 219 492 443 233 221 381 350 549
478 614 467 1267 743 1994 842 219 30 704 37 946 14 780 -74 1482 -327 2144
-775 242 -163 421 -308 732 -594 519 -476 1067 -809 1651 -1004 697 -233 1213
-213 1598 63 258 184 453 466 663 960 458 1076 738 2200 803 3215 7 114 9 299
6 485 -6 296 -11 376 -43 627 l-17 128 -50 15 c-106 32 -166 19 -407 -85 -473
-203 -905 -326 -1383 -391 -193 -26 -669 -37 -868 -20 -872 76 -1677 397
-2514 1004 -162 118 -317 243 -588 476 -376 322 -536 445 -752 576 -675 410
-1343 525 -2030 350 -417 -107 -806 -315 -1256 -672 -206 -164 -361 -300 -730
-642 -79 -74 -196 -176 -259 -227 -932 -748 -2120 -1045 -3358 -838 -760 126
-1524 468 -2123 950 -121 97 -257 233 -309 309 -67 97 -91 193 -71 286 25 118
148 316 276 444 93 94 168 142 280 181 68 24 96 28 190 28 200 0 356 -64 635
-261 545 -385 964 -575 1465 -664 151 -27 491 -37 646 -20 408 47 794 192
1187 447 224 146 409 296 792 644 452 410 602 533 890 725 605 404 1185 614
1875 680 199 19 610 22 790 5 456 -42 889 -150 1310 -327 125 -53 380 -177
475 -231 383 -218 669 -421 1085 -772 409 -345 603 -497 818 -638 391 -258
805 -419 1257 -489 89 -14 175 -18 375 -18 263 0 312 5 524 46 499 99 1039
385 1391 739 183 183 252 325 253 515 1 129 -12 185 -88 385 -35 91 -102 287
-150 435 -211 659 -339 978 -626 1555 -959 1933 -2414 3520 -4219 4602 -1549
929 -3248 1455 -5065 1568 -234 14 -831 20 -1055 10z"/>
</g>
</svg>
